<svg width="69" height="52" viewBox="0 0 69 52" fill="none" xmlns="http://www.w3.org/2000/svg">
<path d="M68.1622 8.14275L64.0855 7.5388H64.0748L63.1904 7.40938C61.7992 7.15055 60.0952 6.61131 58.0137 5.66225C46.8515 0.604181 35.797 0.960079 34.7509 1.00322C34.7293 1.00322 34.7078 1.00322 34.6862 1.00322C33.6401 0.960079 22.5857 0.604181 11.4342 5.66225C9.35274 6.61131 7.64875 7.15055 6.25751 7.40938L5.37316 7.5388H5.36237L1.28572 8.14275C0.89747 8.19667 0.617065 8.531 0.617065 8.91925V15.2823C0.617065 15.595 0.800407 15.8754 1.0916 16.0049L4.38096 17.4177C4.63979 17.5255 4.82313 17.7736 4.85549 18.054C5.02804 19.7472 5.64278 25.7112 6.31143 28.1701C6.35457 28.3103 6.44085 28.6015 6.44085 28.6123C6.8291 30.1653 7.35756 31.7183 8.05857 33.2605C9.51451 36.4852 11.6499 39.5588 14.2275 42.1688C16.9129 44.8757 19.9973 47.0219 23.3838 48.5533C27.029 50.1926 30.8576 51.0338 34.7509 51.0338C38.6442 51.0338 42.4728 50.2034 46.1181 48.5533C49.5045 47.0327 52.5782 44.8757 55.2744 42.1688C57.8519 39.5696 59.9873 36.4852 61.4433 33.2605C62.4139 31.1143 63.0826 28.9466 63.4385 26.7789C63.9777 23.9317 64.4414 19.4776 64.5924 18.054C64.6248 17.7736 64.7973 17.5255 65.067 17.4177L68.3563 16.0049C68.6475 15.8862 68.8308 15.595 68.8308 15.2823V8.91925C68.8308 8.531 68.5397 8.19667 68.1622 8.14275ZM34.7509 47.3131C20.7846 47.3131 9.44981 34.7165 9.44981 22.961C9.44981 11.2056 19.2316 4.72397 34.7509 4.72397C50.2702 4.72397 60.052 11.2056 60.052 22.961C60.052 34.7165 48.728 47.3131 34.7509 47.3131Z" fill="#FFC700"/>
<path fill-rule="evenodd" clip-rule="evenodd" d="M53.0814 22.2022C53.4649 21.6335 53.3062 21.6864 53.0152 21.8451C52.7243 22.0171 52.1688 22.9693 52.1688 22.9693L51.9704 22.9561C51.7721 22.9428 49.4312 22.9561 48.9418 22.9825C48.6773 22.9957 48.5583 23.0222 48.5054 23.0486C48.4657 23.0619 48.4128 23.0354 48.4261 22.9825C48.4418 22.8802 48.5232 22.7215 48.5976 22.5764C48.6482 22.4778 48.6956 22.3855 48.717 22.3213C48.7831 22.1097 48.7038 22.0171 48.4128 22.1361C48.1219 22.2551 47.6061 22.8106 47.2623 23.1809L47.2622 23.1809C46.9396 23.5284 46.6985 23.5265 46.4951 23.525L46.4555 23.5248C46.2439 23.5248 45.8868 23.5248 45.7942 23.7231C45.7203 23.8816 45.8572 23.905 46.1107 23.9485C46.1747 23.9594 46.246 23.9717 46.3232 23.9876C46.5854 24.0419 46.5757 24.0591 46.4883 24.2124C46.4479 24.2833 46.3909 24.3835 46.3365 24.5299C46.1645 24.9928 44.7362 27.122 44.313 27.7304C44.0869 28.0554 43.9703 28.3352 43.8683 28.5797C43.7794 28.7928 43.7017 28.9792 43.5724 29.1455C43.3079 29.5026 42.4747 29.6481 42.3821 29.6481C42.3688 29.6481 42.3491 29.6536 42.3265 29.6599C42.1922 29.6974 41.9537 29.764 42.316 28.881C42.7392 27.8362 43.083 25.4689 43.1095 25.1515C43.119 25.042 43.1148 24.7902 43.1099 24.4931C43.1011 23.9648 43.0899 23.2931 43.1492 23.0222C43.1865 22.8517 43.2946 22.7413 43.4693 22.563C43.7281 22.2987 44.1331 21.8853 44.6701 20.9062C45.5694 19.2662 45.2255 18.2082 45.1065 17.8776C45.0989 17.8563 45.0912 17.8342 45.0834 17.8115C44.9691 17.4811 44.8132 17.0302 44.0088 17.4014C42.9508 17.8776 42.6731 19.663 42.6598 20.1391C42.6466 20.6284 42.4218 23.0222 42.0911 23.3793C41.7605 23.7364 41.0463 24.1596 40.1735 23.9744C39.3006 23.7893 39.2212 21.6071 39.2212 21.6071C39.2212 21.5277 39.1816 21.5013 39.0096 21.5013C38.7319 21.5145 38.6526 21.9642 38.7055 22.8767C38.7584 23.8025 39.38 24.6621 40.2793 24.7283C40.9182 24.7752 41.3502 24.4484 41.6369 24.2315C41.7537 24.1431 41.8465 24.0729 41.9192 24.0538C42.1165 24.0122 42.1344 24.1745 42.165 24.4509L42.165 24.451C42.1734 24.5266 42.1827 24.6109 42.1969 24.7018C42.316 25.4953 41.7208 28.0743 41.6415 28.2594C41.5489 28.4446 41.4563 28.4049 41.0596 27.7304C40.676 27.0559 39.4725 26.3946 38.6393 27.5056C37.7929 28.6165 38.4806 29.41 39.38 30.0845C40.0136 30.5504 40.6407 30.4123 41.0068 30.3317C41.1603 30.2979 41.2679 30.2742 41.3108 30.3093C41.4563 30.4284 41.9457 30.6267 42.2763 30.5342C42.4482 30.4813 42.7392 30.2829 42.9772 30.0845C43.1095 29.9787 43.3079 30.0316 43.3608 30.1903C43.3727 30.226 43.3872 30.267 43.4033 30.3122C43.4229 30.3675 43.4447 30.429 43.4666 30.4945C43.689 31.0319 44.0867 30.8163 44.6232 30.5252C44.8525 30.4009 45.1071 30.2628 45.3842 30.1639C46.31 29.8332 47.9103 28.8942 47.9103 28.8942C47.9103 28.8942 47.8045 29.2116 47.8045 29.8465C47.8045 30.4813 48.0029 30.6003 48.6509 30.3093C49.0816 30.1248 49.4363 29.5196 49.653 29.1499C49.7624 28.9634 49.8366 28.8368 49.8676 28.8546C49.917 28.8757 49.9362 29.0246 49.9635 29.2351C49.9874 29.4196 50.0175 29.6514 50.0792 29.8861C50.2115 30.3887 50.7273 30.2564 51.1769 29.8994C51.6266 29.5423 52.2482 28.4313 52.0895 28.3917C51.9617 28.3622 51.885 28.4569 51.6639 28.7303L51.6638 28.7304C51.5875 28.8247 51.494 28.9403 51.3753 29.0794C50.9222 29.5954 50.8764 29.5485 50.7704 29.4402L50.7537 29.4232C50.6347 29.3042 50.7273 27.7965 51.1505 26.5401C51.6134 25.2837 52.7111 22.7577 53.0814 22.2022ZM43.4269 19.4249C43.5327 18.4198 44.022 17.9172 44.313 17.7189C44.4452 17.6263 44.6436 17.6395 44.7362 17.785C44.7437 17.7962 44.7523 17.8075 44.7613 17.8193L44.7613 17.8194C44.7841 17.8493 44.8098 17.8831 44.8288 17.9305C45.0668 18.3272 45.0668 19.1075 44.6172 20.4433C44.1807 21.779 43.2285 22.2551 43.2021 22.1361C43.1624 21.9906 43.2682 20.8665 43.4269 19.4249ZM39.6709 29.82C38.6393 29.5026 38.5732 28.6958 38.7584 28.1272C38.9435 27.5452 39.5783 27.413 39.5783 27.413C40.1735 27.2146 40.4644 27.7436 40.5438 27.9817C40.5537 28.0099 40.5682 28.0492 40.586 28.0974L40.5861 28.0978C40.7101 28.4343 40.9918 29.1987 40.9802 29.5687C40.9538 29.9787 40.7025 30.1242 39.6709 29.82ZM50.0131 27.7569C49.8544 28.8942 48.5715 29.9919 48.4393 29.9126C48.307 29.8332 48.5451 28.3784 48.7038 27.9817C49.5502 25.9582 50.3305 25.6144 50.3305 25.6144C50.4731 25.7173 50.3879 26.0576 50.2626 26.5583C50.1787 26.8935 50.0767 27.3007 50.0131 27.7569ZM50.7802 26.0243C50.7802 26.0243 50.7669 25.7466 50.8066 25.6276C50.8463 25.5086 50.9653 25.0324 50.7405 25.0192C50.5157 25.006 49.8147 25.2837 49.246 26.1698C48.8287 26.8201 48.7603 26.9718 48.6647 27.1842C48.63 27.2612 48.5917 27.3462 48.5319 27.4659C48.4553 27.6145 48.3757 27.7769 48.3003 27.9306L48.3002 27.9309C48.1542 28.2286 48.0242 28.4938 47.9632 28.5636C47.8706 28.6694 47.0242 29.0926 46.839 29.1455C46.8132 29.1547 46.7672 29.172 46.706 29.1949L46.706 29.1949C46.3292 29.3361 45.3762 29.6933 45.0007 29.7274C44.5643 29.7803 44.3923 29.3307 44.7494 28.5371C45.0585 27.8502 45.0604 27.8471 45.1583 27.6871L45.1584 27.687C45.1735 27.6622 45.191 27.6336 45.2123 27.5982C45.3578 27.3336 46.8258 24.7283 47.5267 24.1596C47.6848 24.0313 47.7992 23.9307 47.8889 23.8516L47.889 23.8516C48.1971 23.5803 48.2151 23.5644 48.717 23.5644C49.3651 23.5644 50.5686 23.4719 50.9124 23.3528C51.2563 23.2338 51.9704 23.1809 52.0498 23.2074C52.0498 23.2074 51.1372 25.3234 51.0182 25.7069C50.8992 26.1037 50.7802 26.0243 50.7802 26.0243ZM23.6286 20.2317C23.8006 19.2794 24.4222 18.7901 24.5015 19.0282C24.5809 19.2662 24.0783 21.9774 23.827 23.2603C23.5361 24.5696 22.3987 28.6297 22.0813 29.3042C21.9038 29.6814 21.7759 30.1413 21.663 30.5474C21.574 30.8676 21.4942 31.1544 21.4068 31.3409C21.2084 31.7641 20.6529 31.579 20.3355 31.3674C20.1205 31.233 20.215 30.965 20.3436 30.6006C20.4048 30.4271 20.4738 30.2317 20.5207 30.0184C20.5952 29.6458 20.6739 28.9372 20.745 28.2973L20.745 28.2973C20.8001 27.8016 20.8506 27.3472 20.891 27.122C20.9263 26.9033 21.0519 26.0632 21.1816 25.1966C21.2949 24.4391 21.4112 23.6612 21.4729 23.2603C21.3274 23.8157 20.8381 24.7547 20.5604 25.2705C20.4413 25.4953 20.362 25.7202 20.3223 25.9714C20.3087 26.0462 20.2498 26.2326 20.1867 26.432L20.1867 26.4321L20.1867 26.4321C20.1269 26.6209 20.0635 26.8215 20.0314 26.9501C19.5288 28.9075 18.3914 31.7244 17.8624 31.9361C17.545 32.0551 17.3069 32.0022 17.7566 30.6929C18.2063 29.3968 18.9998 23.5909 18.9998 23.5909C18.3103 23.5798 17.8639 23.3442 17.2754 23.0336L17.2754 23.0336L17.2752 23.0335C17.1639 22.9748 17.0475 22.9134 16.9234 22.8503C16.1431 22.4535 15.3628 21.1574 15.9051 19.9936C16.4473 18.8298 17.9418 18.6182 18.5237 18.843C20.5548 19.6285 20.1103 23.9655 19.9775 25.2616C19.9538 25.4931 19.94 25.6276 19.952 25.6276C20.071 25.6276 20.891 23.6702 21.1687 22.0832C21.3073 21.2923 21.3476 21.0028 21.3732 20.8189L21.3732 20.8189V20.8189C21.4062 20.5815 21.4148 20.5197 21.5787 19.782C21.8697 18.4727 22.4913 17.5602 22.888 18.3537C23.2848 19.1472 22.7954 21.6997 22.4251 23.3793C22.0548 25.0589 21.6713 27.6775 21.8432 27.6775C22.0019 27.6643 22.3722 26.8972 22.5706 25.1118C22.6882 23.9783 23.0189 22.7063 23.2854 21.6814C23.4387 21.0919 23.5707 20.5842 23.6286 20.2317ZM16.8441 22.3609C17.3598 22.7577 18.4575 23.3396 18.8543 23.3396C19.2511 23.3396 19.1188 21.1971 18.9601 20.4433C18.8543 19.9804 18.6427 19.3852 17.9285 19.253C17.6376 19.2001 17.3466 19.253 17.0821 19.372C16.725 19.5307 16.3415 19.7556 16.1299 20.311C15.8786 20.9987 16.2886 21.9245 16.8441 22.3609ZM22.2532 19.5307C22.2532 19.5307 21.8168 21.4087 21.711 21.6203C21.6052 21.8319 21.711 22.1758 21.8035 22.189C21.8961 22.2022 22.478 19.9672 22.2532 19.5307ZM36.5365 22.3345C36.4307 22.7048 34.9495 25.9714 33.9576 26.765C32.9657 27.5585 32.4896 28.9604 32.7277 29.291C32.9393 29.6349 33.7725 30.111 35.0421 29.1191C35.9056 28.4445 36.2246 28.0819 36.357 27.9314C36.4193 27.8606 36.4403 27.8367 36.4572 27.8494C36.5233 27.8891 36.7217 28.1404 36.0075 28.8017C35.2934 29.4629 34.2882 30.2564 32.9128 30.3887C31.5374 30.5342 31.8416 29.5687 31.9341 29.3307C31.9935 29.1781 31.5205 29.547 31.093 29.8804L31.093 29.8804C30.8535 30.0672 30.6283 30.2429 30.519 30.3093C30.2281 30.4945 29.3552 31.0367 29.1833 30.2961C29.0113 29.5423 29.4213 28.8149 29.9239 28.0875C30.0498 27.9086 30.1558 27.7645 30.241 27.6487C30.496 27.3021 30.5652 27.208 30.4265 27.1882C30.2545 27.1617 29.051 27.8759 27.6359 29.3307C26.2208 30.7855 26.2473 30.3226 26.406 30.0052C26.4152 29.9775 26.4308 29.9498 26.444 29.9267C26.4496 29.9166 26.4549 29.9074 26.4589 29.8994C26.2737 30.111 25.9828 30.3622 25.6918 30.3358C25.2289 30.2961 25.0041 30.0713 25.3744 29.2116L25.4316 29.079C25.7918 28.243 26.2208 27.2476 26.2208 27.122C26.2076 26.9898 25.8902 27.0427 25.6653 27.1617C25.5706 27.2119 25.483 27.2409 25.3994 27.2686C25.2845 27.3066 25.1774 27.342 25.0702 27.4262C25.0153 27.4662 24.9283 27.6267 24.8157 27.8346L24.8157 27.8347C24.6301 28.1775 24.3747 28.649 24.0783 28.9207C23.6022 29.3571 22.7426 29.7803 22.5442 29.82C22.3458 29.8597 22.2797 29.82 22.3326 29.7274C22.3326 29.7274 23.7874 29.1984 24.118 28.2991C24.2847 27.8457 24.3976 27.3621 24.4974 26.9347C24.5955 26.5142 24.681 26.1481 24.7925 25.9185C25.0041 25.4557 25.3876 25.2308 25.4405 25.7995C25.461 25.9713 25.4549 26.0987 25.4503 26.1929C25.4403 26.4034 25.4382 26.4476 25.7579 26.4476C25.9761 26.4476 26.1648 26.3918 26.327 26.3438C26.5089 26.29 26.6574 26.2461 26.7763 26.3021C27.0011 26.4079 26.935 26.6327 26.7895 26.8972C26.644 27.1617 25.8637 29.0265 25.8373 29.3703C25.8108 29.7142 26.0753 29.939 26.7895 29.1191C27.4904 28.2991 28.7997 26.2756 29.0775 25.7466C29.3552 25.2176 30.4265 23.3528 31.4448 22.9429C32.4632 22.5329 32.1061 23.3528 31.7225 23.8422C31.339 24.3447 30.4265 25.2441 29.99 25.6011C29.5536 25.9582 28.4823 27.3072 28.2046 28.0214C27.9974 28.5543 28.0626 28.5054 28.4277 28.232C28.5519 28.139 28.7108 28.02 28.9055 27.8891C29.1509 27.7269 29.3923 27.5307 29.6311 27.3367L29.6311 27.3367C30.1516 26.9138 30.6593 26.5012 31.1671 26.474C31.9209 26.4211 31.4845 27.0691 31.22 27.3072C31.0839 27.4296 30.9654 27.6605 30.8374 27.9098C30.7164 28.1453 30.587 28.3973 30.4265 28.5901C30.0958 28.9868 29.5536 29.8597 29.8313 30.0052C30.1223 30.1506 30.6116 29.9126 31.1142 29.529C31.2954 29.3907 31.4302 29.2972 31.5309 29.2272L31.531 29.2272C31.7096 29.1031 31.7813 29.0534 31.8151 28.9604C31.8306 28.9263 31.8489 28.8264 31.876 28.6794C31.9644 28.1981 32.1457 27.2122 32.6219 26.3814C32.7688 26.1304 32.9469 25.8135 33.1439 25.4631L33.1439 25.4629C33.798 24.2991 34.6601 22.7652 35.2801 22.0435C36.0737 21.1045 36.4836 20.8136 36.6556 21.1045C36.8086 21.3851 36.6542 21.924 36.5481 22.2942L36.5365 22.3345ZM31.2332 23.5512C31.048 23.6306 30.6116 23.8554 30.2545 24.3976C29.7784 25.1118 29.6858 25.297 29.6991 25.3895C29.6991 25.4953 30.8761 24.4902 31.0877 24.1199C31.22 23.9083 31.2993 23.7496 31.339 23.6438C31.3522 23.5909 31.2993 23.5248 31.2332 23.5512ZM33.3492 26.5137C33.1905 26.9633 33.1905 27.0427 33.3889 26.9104C33.5873 26.7782 34.5263 25.8392 34.8966 25.0721C35.2669 24.2918 35.7959 23.3661 36.0075 22.9958C36.2191 22.6254 36.5233 21.7261 36.2191 21.6203C36.2191 21.6203 35.214 22.5196 34.4337 24.2786C33.9568 25.3538 33.7219 25.7817 33.5722 26.0545C33.4769 26.228 33.4161 26.3389 33.3492 26.5137ZM37.4623 30.111C37.4623 30.4104 37.2196 30.6532 36.9201 30.6532C36.6206 30.6532 36.3779 30.4104 36.3779 30.111C36.3779 29.8115 36.6206 29.5687 36.9201 29.5687C37.2196 29.5687 37.4623 29.8115 37.4623 30.111Z" fill="#FFC700"/>
</svg>
